<svg width="65" height="42" viewBox="0 0 65 42" fill="none" xmlns="http://www.w3.org/2000/svg">
<path d="M60.7415 0H3.9736C1.77904 0 0 1.77904 0 3.9736V37.4004C0 39.5949 1.77904 41.374 3.9736 41.374H60.7415C62.936 41.374 64.7151 39.5949 64.7151 37.4004V3.9736C64.7151 1.77904 62.936 0 60.7415 0Z" fill="url(#paint0_linear_568_6364)"/>
<path fill-rule="evenodd" clip-rule="evenodd" d="M17.2593 20.2927L17.5475 19.1552C18.6546 18.8216 20.9144 18.6699 21.3391 19.8681C21.5817 20.5657 20.8841 23.4625 20.7476 24.3118L19.6708 24.327C19.4281 24.0237 19.6253 24.5848 19.4584 23.8417C18.4271 24.7668 16.228 24.6152 16.3948 22.7497C16.5617 20.8994 18.1693 21.142 19.9134 20.869C19.8831 19.6861 18.3968 20.0046 17.2441 20.2776L17.2593 20.2927ZM25.3733 20.1107C24.3875 20.1107 24.2359 19.8984 23.3714 20.2776C23.4775 21.3544 24.0387 20.9297 24.8122 21.4454C26.2833 22.416 24.706 25.419 21.2026 24.1298L21.3997 23.0378C22.3856 23.235 22.8861 23.4322 23.6444 23.0075C23.8264 21.4757 21.1116 22.4767 21.8699 20.0197C22.2794 18.6851 24.0842 18.8671 25.5705 19.0036L25.3582 20.1107H25.3733ZM10.2676 17.7903L12.5881 17.8661L12.8307 21.506L14.0895 18.5941C14.5142 17.5476 14.226 17.7751 16.8953 17.8054L15.6972 24.3118L14.3929 24.2967L15.1057 19.6254L13.1796 24.327L11.6174 24.2815C11.5719 23.3715 11.4961 20.1714 11.2534 19.5647L10.4648 24.2967L9.09978 24.2815L10.2676 17.7903ZM32.3954 31.6069L33.0324 30.8485C31.7584 30.6817 31.5309 31.0457 30.9546 30.0144L33.8817 29.9841C34.0637 29.6807 34.367 29.3926 34.5187 29.0437C31.1821 28.8162 30.2418 29.6656 29.7109 28.2096H35.0647L35.6562 27.2844L29.0436 27.2541L28.7403 26.4806L35.8685 26.4503C36.278 26.2228 36.278 25.965 36.3842 25.4948L29.6351 25.4796C28.4218 25.4948 28.346 25.7678 28.1185 24.6606H36.6117L36.8847 23.7203L34.3974 23.69L34.276 24.327L32.8504 24.2663L33.7452 18.9732L35.095 19.1552C35.095 19.1856 35.1254 19.2917 35.1254 19.3372C35.1254 19.3676 35.1405 19.4131 35.1405 19.4282L35.2163 19.7012C35.5955 19.2462 35.8382 18.9126 36.7178 18.9429L36.2628 20.1714C36.005 20.5051 35.2467 20.1259 34.9282 21.0359L36.4145 21.0965C36.5813 20.1411 36.7633 19.8529 37.0363 19.0794L37.0515 18.6244L27.7545 18.6396L27.7241 18.9732C28.2246 18.9732 28.2095 18.8822 28.4976 19.1249L28.3611 20.0197C27.4208 20.2472 27.4511 19.6861 27.3601 20.9145C27.4966 21.142 27.3298 21.0207 27.618 21.0965L28.2095 21.1117C29.1649 18.0026 32.0162 18.6851 32.6684 19.6557C33.0172 20.1714 33.366 21.87 32.5016 22.0065L29.6048 22.0369C29.7413 23.5687 31.5006 23.2502 32.6381 22.871C32.5926 23.508 32.6381 24.0237 32.0466 24.236C31.5764 24.4028 30.5906 24.3573 30.0749 24.236C28.801 23.9478 28.255 23.3108 28.164 21.9307L27.618 21.9155C27.1175 21.688 27.5118 21.9155 27.254 21.2937C27.0417 22.5677 26.4653 23.3867 28.0426 23.2047C27.9516 23.963 28.0578 24.2208 27.2236 24.3118C24.797 24.6 25.5857 22.9772 25.98 20.8084C26.6018 17.3504 26.1165 17.7751 27.8758 17.8054L36.915 17.8206L36.733 16.8803L27.9971 16.8499L28.164 16.0916L36.4297 16.0461C36.2173 14.757 36.1718 15.0755 33.1689 15.0755H28.5886C28.9071 13.9683 28.7403 14.2717 31.7129 14.2717H35.732L35.3073 13.3162L29.4834 13.301L29.8778 12.5124L34.7462 12.482C34.1244 11.208 34.1547 11.572 30.7119 11.5114C31.1517 10.4194 31.9252 10.6924 33.275 10.6924C32.8959 10.0857 32.6229 10.1312 32.3954 9.61557C31.8342 9.32741 31.3337 8.81175 30.7726 8.41742C26.4805 5.38414 20.6566 5.06564 15.9853 7.34061C11.7842 9.37291 7.65898 14.0745 7.70447 20.5809C7.76514 29.8779 15.9247 36.6573 25.161 35.08C29.4986 34.3368 30.5906 32.5775 32.3802 31.5917L32.3954 31.6069Z" fill="#E41D2C"/>
<path fill-rule="evenodd" clip-rule="evenodd" d="M42.299 19.1096C47.0005 18.1542 46.2271 20.4746 45.8479 22.3552C45.7266 22.9164 45.7266 24.0236 45.2867 24.3269C45.1806 24.3269 44.5588 24.342 44.4981 24.3117C44.0734 24.1449 44.2706 24.6454 44.2099 23.8719C42.9359 24.5999 40.9188 24.7667 41.1615 22.7344C41.3586 21.1116 42.9966 20.8538 44.6649 20.9296C44.6042 19.7315 43.5123 19.9286 41.9956 20.3078L42.3141 19.1096H42.299ZM46.9399 18.9731L48.1987 18.9883C48.2139 19.0186 48.229 19.0641 48.229 19.0945L48.4262 19.6556C48.6537 19.3068 49.0783 19.0035 49.7457 18.9883L49.5637 20.0651L48.9418 20.3078C47.6982 20.7173 47.774 22.2794 47.4404 24.3269H46.0299L46.9399 18.9731ZM53.6283 17.8205H54.9174L53.8103 24.342C52.3695 24.3572 52.7183 24.433 52.2633 23.8871C51.323 25.2824 48.502 23.9932 49.3665 21.1116C50.0035 18.958 52.1571 18.3816 53.2188 19.6556L53.6434 17.8053L53.6283 17.8205ZM32.4105 9.63063C32.6379 10.1463 32.9261 10.1008 33.2901 10.7074C31.9403 10.7074 31.1668 10.4193 30.727 11.5264C34.1698 11.5871 34.1394 11.2231 34.7612 12.4971L29.8928 12.5274L29.4985 13.3161L35.3224 13.3312L35.7471 14.2867H31.728C28.7705 14.2867 28.9222 13.9986 28.6037 15.0905H33.1839C36.1869 15.0905 36.2324 14.772 36.4447 16.0612L28.179 16.1067L28.0122 16.865L36.748 16.8953L36.93 17.8357L27.8909 17.8205L27.7695 18.6698L37.0665 18.6546L37.0514 19.1096C37.749 18.4423 37.6277 18.0935 38.932 17.7143C40.0088 17.411 40.6913 17.6385 41.753 17.866L41.5255 19.2613C39.7055 18.7153 38.5225 18.8518 38.0979 20.7324C37.6277 22.7496 39.2202 23.5079 40.9036 22.7041C40.752 24.1752 40.5093 24.5392 38.7803 24.3117C37.5822 24.1601 37.2182 23.5837 36.6874 22.8709H34.5186L34.3973 23.7051L36.8845 23.7354L36.6116 24.6757H28.1184C28.3459 25.7829 28.4217 25.5099 29.635 25.4947L36.3841 25.5099C36.2627 25.9649 36.2779 26.2379 35.8684 26.4653L28.7402 26.4957L29.0435 27.2692L35.6561 27.2995L35.0646 28.2247H29.7108C30.2417 29.6655 31.182 28.8313 34.5186 29.0588C34.3669 29.4076 34.0636 29.6958 33.8816 29.9991L30.9545 30.0295C31.5156 31.0456 31.7583 30.6968 33.0323 30.8636L32.3953 31.6219C34.5641 33.2144 36.2476 34.549 39.751 35.1557C42.9359 35.7017 46.2574 35.095 48.8205 33.8362C59.9223 28.3611 59.619 12.5881 48.7295 7.37083C44.8166 5.50536 39.6297 5.33853 35.5802 7.46183C33.6238 8.47798 33.1536 9.20597 32.4256 9.6458L32.4105 9.63063Z" fill="#F8B02B"/>
<path fill-rule="evenodd" clip-rule="evenodd" d="M9.09961 24.2968L10.4646 24.3119L11.2532 19.58C11.4959 20.1867 11.5717 23.3868 11.6172 24.2968L13.1794 24.3423L15.1055 19.6407L14.3927 24.3119L15.697 24.3271L16.8951 17.8207C14.2259 17.7904 14.514 17.5629 14.0894 18.6094L12.8305 21.5213L12.5879 17.8814L10.2674 17.8055L9.09961 24.2968ZM51.3532 23.0986C50.2158 21.9308 51.1864 19.9895 52.2481 20.2473C53.2945 20.5052 53.0974 23.0683 51.3532 23.0986ZM53.2035 19.6558C52.1419 18.3819 50.0034 18.9582 49.3513 21.1118C48.4868 23.9783 51.3077 25.2826 52.2481 23.8873C52.703 24.4333 52.3542 24.3423 53.795 24.3423L54.9022 17.8207H53.613L53.1884 19.671L53.2035 19.6558ZM42.7842 23.1138C42.5719 22.0976 43.5122 21.7033 44.407 21.8853C44.4525 22.9166 43.7245 23.4778 42.7842 23.1138ZM42.2989 19.125L41.9804 20.3232C43.497 19.9592 44.6042 19.762 44.6497 20.945C42.9814 20.8692 41.3434 21.127 41.1462 22.7498C40.8884 24.7821 42.9207 24.6153 44.1947 23.8873C44.2554 24.6608 44.0582 24.1603 44.4829 24.3271C44.5435 24.3574 45.1653 24.3423 45.2715 24.3423C45.7265 24.0541 45.7265 22.9318 45.8327 22.3706C46.227 20.4748 46.9853 18.1695 42.2837 19.125H42.2989ZM19.6706 21.8398C19.7009 22.3555 19.6099 22.7498 19.2763 23.0076C19.0488 23.1745 18.3663 23.3716 18.0933 23.1138C17.244 22.3403 18.8364 21.8246 19.6554 21.8398H19.6706ZM17.2591 20.2928C18.4118 20.0198 19.8981 19.7013 19.9284 20.8843C18.1843 21.1573 16.5767 20.9147 16.4098 22.765C16.2278 24.6304 18.427 24.7821 19.4734 23.8569C19.6403 24.6001 19.4431 24.0389 19.6858 24.3423L20.7626 24.3271C20.8991 23.4626 21.5967 20.581 21.3541 19.8833C20.9294 18.67 18.6848 18.8217 17.5625 19.1705L17.2743 20.308L17.2591 20.2928ZM29.8321 21.0512C30.0293 20.2777 30.3629 19.9592 31.2577 20.0805C31.5762 20.5355 31.5762 20.399 31.6369 21.0512H29.8321ZM28.2245 21.127L28.1638 21.946C28.2548 23.3261 28.8159 23.9479 30.0748 24.2513C30.5904 24.3726 31.5762 24.4181 32.0464 24.2513C32.6379 24.0541 32.5924 23.5233 32.6379 22.8863C31.5004 23.2655 29.7411 23.5839 29.6046 22.0521L32.5014 22.0218C33.3659 21.8853 33.017 20.2018 32.6682 19.671C32.0161 18.7004 29.1648 18.0179 28.2093 21.127H28.2245ZM37.0513 19.1099C36.7783 19.8833 36.5963 20.1715 36.4295 21.127V21.9611L36.6873 22.8863C37.2181 23.5991 37.5821 24.1754 38.7803 24.3271C40.5093 24.5546 40.7519 24.1906 40.9036 22.7195C39.2049 23.5233 37.6276 22.765 38.0978 20.7478C38.5376 18.852 39.7206 18.7307 41.5254 19.2767L41.7529 17.8814C40.6912 17.669 40.0088 17.4415 38.9319 17.7297C37.6276 18.0937 37.749 18.4577 37.0513 19.125V19.1099ZM25.5703 19.0037C24.084 18.8824 22.2792 18.6852 21.8697 20.0198C21.1114 22.4768 23.811 21.4758 23.6442 23.0076C22.8707 23.4323 22.3854 23.2351 21.3996 23.038L21.2024 24.1299C24.7058 25.4191 26.268 22.4313 24.812 21.4455C24.0385 20.9298 23.4774 21.3697 23.3712 20.2777C24.2357 19.8833 24.3722 20.1108 25.3732 20.1108L25.5855 19.0037H25.5703Z" fill="#FEFEFE"/>
<path fill-rule="evenodd" clip-rule="evenodd" d="M27.2689 21.3091L27.3751 20.9451C27.4661 19.7166 27.4357 20.2778 28.3761 20.0503L28.5126 19.1555C28.2244 18.9128 28.2396 19.0038 27.7391 19.0038L27.7694 18.6701L27.8907 17.8208C26.1314 17.7905 26.6168 17.3658 25.9949 20.8238C25.6006 22.9926 24.8119 24.6154 27.2386 24.3272C28.0576 24.2362 27.9666 23.9784 28.0576 23.2201C26.4954 23.4021 27.0717 22.5831 27.2689 21.3091ZM34.3971 23.7205L34.5185 22.8864L34.6701 21.9764L34.9431 21.0664C35.2768 20.1564 36.0351 20.5356 36.2778 20.2019L36.7327 18.9735C35.8379 18.9431 35.5953 19.2768 35.2313 19.7318L35.1554 19.4588C35.1554 19.4436 35.1403 19.3981 35.1403 19.3678C35.1403 19.3375 35.1099 19.2161 35.1099 19.1858L33.7601 19.0038L32.8653 24.2969L34.291 24.3575L34.4123 23.7205H34.3971ZM46.0298 24.3272H47.4402C47.7739 22.2797 47.6981 20.7176 48.9417 20.3081L49.5635 20.0654L49.7455 18.9886C49.0782 19.0038 48.6535 19.3071 48.4261 19.6559L48.2289 19.0948C48.2137 19.0645 48.2137 19.019 48.1986 18.9886L46.9397 18.9735L46.0298 24.3272Z" fill="#FEFEFE"/>
<path fill-rule="evenodd" clip-rule="evenodd" d="M51.3535 23.0982C53.1128 23.0679 53.3099 20.5048 52.2483 20.2469C51.1715 19.9891 50.216 21.9304 51.3535 23.0982Z" fill="#F8B02B"/>
<path fill-rule="evenodd" clip-rule="evenodd" d="M19.6707 21.8397C18.8517 21.8245 17.2592 22.3402 18.1085 23.1137C18.3815 23.3563 19.064 23.1592 19.2915 23.0075C19.6252 22.7648 19.701 22.3553 19.6858 21.8397H19.6707ZM34.5186 22.871L36.6874 22.8862L36.4295 21.961H34.6702L34.5186 22.871Z" fill="#E41D2C"/>
<path fill-rule="evenodd" clip-rule="evenodd" d="M42.7849 23.1134C43.7404 23.4622 44.4532 22.9163 44.4077 21.8849C43.4978 21.7181 42.5726 22.1124 42.7849 23.1134ZM34.6709 21.9608H36.4302V21.1266L34.9439 21.0508L34.6709 21.9608Z" fill="#F8B02B"/>
<path fill-rule="evenodd" clip-rule="evenodd" d="M29.832 21.0509H31.6368C31.5913 20.4139 31.5762 20.5352 31.2577 20.0802C30.3629 19.9589 30.0292 20.2774 29.832 21.0509Z" fill="#E41D2C"/>
<path fill-rule="evenodd" clip-rule="evenodd" d="M27.2695 21.3088C27.5274 21.9307 27.133 21.7032 27.6335 21.9307L28.1795 21.9458L28.2402 21.1269L27.6487 21.1117C27.3454 21.051 27.5122 21.1572 27.3909 20.9297L27.2847 21.2937L27.2695 21.3088Z" fill="#F8B02B"/>
<defs>
<linearGradient id="paint0_linear_568_6364" x1="32.3569" y1="0.00576324" x2="32.3569" y2="41.3829" gradientUnits="userSpaceOnUse">
<stop stop-color="#1D4C80"/>
<stop offset="1" stop-color="#173A63"/>
</linearGradient>
</defs>
</svg>
