<svg width="85" height="37" viewBox="0 0 85 37" fill="none" xmlns="http://www.w3.org/2000/svg">
<path d="M49.2315 1H3.91177C2.30364 1 1 2.38519 1 4.0939V32.9061C1 34.6148 2.30364 36 3.91177 36H49.2315C50.8396 36 52.1433 34.6148 52.1433 32.9061V4.0939C52.1433 2.38519 50.8396 1 49.2315 1Z" fill="white" stroke="black" stroke-width="0.64724" stroke-linecap="round" stroke-linejoin="round"/>
<path d="M16.3232 25.7609C16.1711 25.8194 15.9753 25.8856 15.735 25.9595C15.4947 26.0343 15.2172 26.1022 14.9008 26.1632C14.5853 26.2243 14.2326 26.2767 13.8434 26.318C13.4543 26.361 13.0319 26.3816 12.5756 26.3816C11.4146 26.3816 10.4122 26.1968 9.56758 25.8288C8.72212 25.4609 8.02634 24.9632 7.47942 24.3373C6.93157 23.7098 6.5164 22.965 6.2618 22.1529C5.99425 21.302 5.86032 20.4101 5.86537 19.513C5.86537 18.4152 6.03284 17.4068 6.36698 16.4904C6.68432 15.6013 7.17353 14.7927 7.80304 14.1169C8.42601 13.4515 9.18005 12.9349 10.0643 12.5669C10.9486 12.199 11.9413 12.0142 13.0416 12.0142C13.8005 12.0142 14.4559 12.0649 15.006 12.1646C15.5562 12.2652 15.9947 12.3598 16.3232 12.4509V16.3159C16.1658 16.2194 16.0029 16.1335 15.8353 16.0589C15.6247 15.9647 15.4085 15.8854 15.1881 15.8216C14.9287 15.7463 14.6653 15.688 14.3992 15.6471C14.0973 15.6006 13.7925 15.5779 13.4874 15.5792C13.0319 15.5792 12.5942 15.6488 12.1751 15.7881C11.7676 15.9196 11.3913 16.1424 11.0716 16.4414C10.7561 16.7388 10.5028 17.1162 10.3151 17.5753C10.1266 18.0335 10.032 18.5794 10.032 19.2121C10.032 19.7485 10.108 20.2376 10.2601 20.6804C10.4122 21.1222 10.6339 21.5005 10.926 21.8134C11.2172 22.1272 11.5748 22.3704 11.9972 22.5449C12.4195 22.7194 12.8984 22.8063 13.4332 22.8063C13.7307 22.8074 14.0277 22.7832 14.3216 22.7341C14.6047 22.6851 14.8677 22.6223 15.1104 22.5449C15.3531 22.4676 15.5772 22.3833 15.7803 22.2931C15.9842 22.2028 16.1654 22.1151 16.3232 22.0317V25.7609ZM30.8108 19.1545C30.8108 20.2591 30.6409 21.2546 30.3003 22.1426C29.9816 22.9959 29.5019 23.7708 28.8909 24.4198C28.2894 25.0514 27.5727 25.5458 26.785 25.8727C25.9557 26.2165 25.0724 26.3893 24.1823 26.3816C23.3148 26.3877 22.4538 26.2233 21.6427 25.8967C20.8689 25.5867 20.1619 25.1139 19.5642 24.5067C18.972 23.9032 18.5044 23.1682 18.1605 22.3025C17.8167 21.4377 17.6451 20.4629 17.6451 19.3771C17.6451 18.2922 17.8094 17.2967 18.1379 16.3941C18.4655 15.4889 18.9242 14.7126 19.514 14.0636C20.1132 13.4077 20.8354 12.8928 21.6338 12.5523C22.4574 12.1938 23.3651 12.0142 24.3554 12.0142C25.2915 12.0142 26.1547 12.1809 26.9444 12.5128C27.7348 12.8463 28.416 13.3209 28.9872 13.9372C29.5584 14.5545 30.005 15.3041 30.327 16.1852C30.649 17.0664 30.8108 18.0567 30.8108 19.1545V19.1545ZM26.6345 19.2705C26.6345 18.6765 26.5779 18.1504 26.4662 17.6913C26.3529 17.2331 26.196 16.8472 25.9921 16.5343C25.8062 16.238 25.5559 15.9935 25.2623 15.8216C24.9719 15.6584 24.6475 15.5753 24.319 15.58C23.8756 15.58 23.4954 15.6763 23.179 15.8706C22.8635 16.064 22.6046 16.3262 22.404 16.6546C22.2041 16.9847 22.0577 17.3681 21.9671 17.8074C21.8734 18.2689 21.8273 18.7399 21.8295 19.2121C21.8295 19.8585 21.8967 20.4087 22.0302 20.8643C22.1645 21.3199 22.3433 21.6904 22.5682 21.9784C22.7931 22.2656 23.052 22.4753 23.3433 22.6077C23.6345 22.7401 23.9387 22.8063 24.2551 22.8063C24.5593 22.8063 24.8538 22.7375 25.1394 22.5982C25.425 22.459 25.679 22.2458 25.9007 21.9587C26.1224 21.6715 26.3004 21.3053 26.4347 20.8592C26.5681 20.4139 26.6345 19.8843 26.6345 19.2705V19.2705ZM44.9967 19.0186C44.9967 20.1035 44.8349 21.0852 44.5088 21.9638C44.1836 22.8424 43.7249 23.5894 43.1326 24.2067C42.5396 24.823 41.826 25.2993 40.9903 25.6354C40.1545 25.9707 39.2257 26.1392 38.2047 26.1392H32.6708V12.2471H38.0858C38.9677 12.2471 39.75 12.3262 40.4337 12.4844C41.1173 12.6426 41.716 12.867 42.2297 13.1575C42.7145 13.4248 43.1524 13.7787 43.5242 14.2037C43.8732 14.6098 44.1609 15.0709 44.377 15.5706C44.5954 16.0735 44.754 16.6159 44.8511 17.197C44.9481 17.779 44.9967 18.3859 44.9967 19.0195V19.0186ZM40.8123 19.0573C40.8123 18.6052 40.7476 18.1659 40.6205 17.7403C40.4987 17.3251 40.3004 16.9396 40.0372 16.6064C39.765 16.2686 39.4257 15.999 39.0437 15.8173C38.6424 15.6196 38.1683 15.5216 37.6214 15.5216H36.6093V22.8647H37.712C38.1571 22.8724 38.5986 22.7783 39.0065 22.5888C39.382 22.4107 39.7153 22.1457 39.9822 21.8134C40.2603 21.4604 40.4696 21.0522 40.5979 20.6124C40.7457 20.1092 40.8181 19.5845 40.8123 19.0573V19.0573Z" fill="black"/>
<path d="M80.8989 1H50.6979C49.0898 1 47.7861 2.38519 47.7861 4.0939V32.9061C47.7861 34.6148 49.0898 36 50.6979 36H80.8989C82.5071 36 83.8107 34.6148 83.8107 32.9061V4.0939C83.8107 2.38519 82.5071 1 80.8989 1Z" fill="white" stroke="black" stroke-width="0.64724" stroke-linecap="round" stroke-linejoin="round"/>
<path d="M50.4802 10.3726C50.3048 10.404 50.1481 10.5072 50.0434 10.6599C49.9388 10.8126 49.8945 11.0029 49.9202 11.1898C49.9459 11.3768 50.0394 11.5456 50.1808 11.6602C50.3222 11.7748 50.5002 11.826 50.6766 11.8029H61.7589L61.2545 13.2643H52.4715C52.4251 13.2592 52.3784 13.2592 52.3321 13.2643C52.1552 13.2861 51.9935 13.3811 51.8821 13.5288C51.7707 13.6764 51.7185 13.8647 51.7368 14.0529C51.7551 14.2411 51.8425 14.4141 51.98 14.5343C52.1176 14.6546 52.2941 14.7124 52.4715 14.6953H60.7772L60.2721 16.1856C60.2173 16.1681 60.1607 16.1582 60.1035 16.1559H54.8292C54.7826 16.1508 54.7357 16.1508 54.6891 16.1559C54.5104 16.1757 54.3465 16.27 54.2332 16.4182C54.12 16.5664 54.0669 16.7563 54.0854 16.9462C54.104 17.1361 54.1928 17.3103 54.3323 17.4306C54.4718 17.5509 54.6505 17.6074 54.8292 17.5877H59.7955L57.0462 25.6068C57.0042 25.7172 56.9887 25.837 57.0013 25.9553C57.0138 26.0736 57.0539 26.1867 57.118 26.2844C57.1821 26.3821 57.268 26.4613 57.3682 26.5147C57.4683 26.5682 57.5794 26.5943 57.6914 26.5907H67.7076C67.8011 26.591 67.8936 26.5707 67.9792 26.531C68.0649 26.4914 68.1418 26.4332 68.2052 26.3603C68.2685 26.2873 68.3169 26.2011 68.3472 26.1072C68.3776 26.0133 68.3892 25.9138 68.3814 25.8149C68.3688 25.6505 68.3535 25.5638 68.3535 25.5172C68.3522 24.9844 68.45 24.4565 68.6413 23.9639C68.8326 23.4713 69.1136 23.0238 69.4683 22.647C69.8229 22.2702 70.2441 21.9716 70.7076 21.7683C71.1712 21.5651 71.668 21.4611 72.1695 21.4625C72.6711 21.4611 73.1679 21.5651 73.6315 21.7684C74.0952 21.9717 74.5164 22.2704 74.871 22.6473C75.2256 23.0241 75.5066 23.4717 75.6979 23.9644C75.8892 24.457 75.9869 24.985 75.9855 25.5179C75.9855 25.5602 75.9683 25.6435 75.957 25.8156C75.9492 25.9145 75.9608 26.0141 75.9911 26.108C76.0215 26.2019 76.0698 26.288 76.1332 26.361C76.1966 26.4339 76.2735 26.4921 76.3592 26.5318C76.4448 26.5714 76.5373 26.5917 76.6307 26.5914H79.0999C79.1884 26.5913 79.276 26.5727 79.3577 26.5366C79.4394 26.5006 79.5136 26.4477 79.5761 26.3812C79.6386 26.3147 79.6882 26.2357 79.722 26.1488C79.7557 26.0619 79.7731 25.9688 79.773 25.8748V20.449C79.7777 20.2867 79.7304 20.1275 79.6387 19.9975C79.547 19.8676 79.4165 19.7746 79.2685 19.7339L74.6109 18.422L70.149 10.7005C70.0884 10.6007 70.0055 10.5185 69.9076 10.4612C69.8096 10.404 69.6999 10.3735 69.5881 10.3726H50.6773C50.6305 10.3673 50.5834 10.3673 50.5366 10.3726C50.518 10.3718 50.4994 10.3718 50.4808 10.3726H50.4802ZM63.2186 11.8029H69.223L73.6285 19.4355C73.7151 19.5943 73.8557 19.7117 74.0214 19.7635L78.4262 20.9858V25.1596H77.248C77.0642 22.3131 74.893 20.0322 72.1695 20.0322C69.4441 20.0322 67.2443 22.311 67.0625 25.1596H58.6731L63.2186 11.8029ZM68.1006 13.0555L64.5939 13.1147C64.4457 13.1162 64.3021 13.1697 64.1853 13.2667C64.0685 13.3637 63.9851 13.4989 63.9481 13.6514L62.7134 18.5405C62.6879 18.6457 62.6851 18.7557 62.7055 18.8622C62.7258 18.9686 62.7687 19.0688 62.8309 19.155C62.893 19.2413 62.9729 19.3113 63.0643 19.3599C63.1557 19.4085 63.2564 19.4344 63.3586 19.4355H70.2333C70.3429 19.4343 70.4507 19.4046 70.5471 19.349C70.6435 19.2935 70.7256 19.2137 70.7865 19.1168C70.8473 19.0198 70.8849 18.9086 70.8961 18.7927C70.9073 18.6768 70.8917 18.5597 70.8506 18.4517L68.7465 13.4723C68.6903 13.3422 68.5988 13.2329 68.4837 13.1586C68.3686 13.0843 68.2351 13.0484 68.1006 13.0555V13.0555ZM67.6798 14.4865L69.1952 18.0045H64.2288L65.0984 14.5458L67.6804 14.4865H67.6798ZM72.2531 22.9831C70.6601 22.9831 69.3638 24.3902 69.3638 26.0836C69.3645 26.8977 69.6691 27.6782 70.2108 28.2539C70.7525 28.8296 71.487 29.1535 72.2531 29.1544C73.0194 29.1536 73.7541 28.8299 74.2959 28.2541C74.8378 27.6784 75.1425 26.8978 75.1432 26.0836C75.1432 24.3909 73.8475 22.9831 72.2531 22.9831ZM72.2531 24.4149C72.6697 24.4153 73.0691 24.5911 73.3637 24.9039C73.6584 25.2168 73.8243 25.641 73.825 26.0836C73.825 27.004 73.1194 27.6938 72.2531 27.6938C71.3876 27.6938 70.682 27.004 70.682 26.0836C70.6825 25.641 70.8482 25.2167 71.1428 24.9037C71.4373 24.5908 71.8366 24.4147 72.2531 24.4141V24.4149Z" fill="black"/>
</svg>
