<svg width="34" height="34" viewBox="0 0 34 34" fill="none" xmlns="http://www.w3.org/2000/svg">
<path d="M16.9997 0C7.62616 0 0 7.62616 0 17C0 26.3741 7.62616 34 16.9997 34C26.3736 34 34 26.3741 34 17C33.9997 7.62616 26.3733 0 16.9997 0ZM16.9997 32.3233C8.55058 32.3233 1.67669 25.4494 1.67669 17C1.67669 8.55086 8.55058 1.67669 16.9997 1.67669C25.4489 1.67669 32.3233 8.55086 32.3233 17C32.323 25.4494 25.4489 32.3233 16.9997 32.3233Z" fill="#949494"/>
<path d="M20.7724 9.00001H17.7658C17.7589 8.99996 17.7521 9.00027 17.7453 9.00096C14.7097 9.01096 14.3133 11.2262 14.3117 13.1624C14.3075 13.1808 14.3053 13.1995 14.3053 13.2184V14.5776H12.2278C12.1674 14.5776 12.1095 14.6027 12.0667 14.6474C12.024 14.692 12 14.7526 12 14.8157V18.1678C12 18.231 12.024 18.2915 12.0667 18.3362C12.1095 18.3809 12.1674 18.4059 12.2278 18.4059H14.3053V25.7619C14.3053 25.825 14.3293 25.8856 14.372 25.9303C14.4148 25.9749 14.4727 26 14.5332 26H17.565C17.6255 26 17.6834 25.9749 17.7262 25.9303C17.7689 25.8856 17.7929 25.825 17.7929 25.7619V18.4062H20.7722C20.8326 18.4062 20.8905 18.3811 20.9333 18.3364C20.976 18.2918 21 18.2312 21 18.1681V14.816C21 14.7528 20.976 14.6923 20.9333 14.6476C20.8905 14.6029 20.8326 14.5778 20.7722 14.5778H17.565V12.776H20.7722C20.8326 12.776 20.8905 12.7509 20.9333 12.7062C20.976 12.6616 21 12.601 21 12.5378V9.23813C21 9.20687 20.9942 9.17591 20.9827 9.14702C20.9713 9.11813 20.9546 9.09188 20.9334 9.06976C20.9123 9.04765 20.8872 9.03011 20.8595 9.01814C20.8319 9.00617 20.8023 9.00001 20.7724 9.00001V9.00001Z" fill="#404040"/>
</svg>
