<svg width="34" height="34" viewBox="0 0 34 34" fill="none" xmlns="http://www.w3.org/2000/svg">
<path d="M17 15.016C16.6076 15.016 16.224 15.1324 15.8977 15.3504C15.5715 15.5684 15.3172 15.8782 15.167 16.2408C15.0169 16.6033 14.9776 17.0022 15.0541 17.3871C15.1307 17.7719 15.3196 18.1254 15.5971 18.4029C15.8746 18.6804 16.2281 18.8693 16.6129 18.9459C16.9978 19.0224 17.3967 18.9831 17.7592 18.833C18.1218 18.6828 18.4316 18.4285 18.6496 18.1023C18.8676 17.776 18.984 17.3924 18.984 17C18.984 16.7395 18.9327 16.4815 18.833 16.2408C18.7333 16 18.5871 15.7813 18.4029 15.5971C18.2187 15.4129 18 15.2667 17.7592 15.167C17.5185 15.0673 17.2605 15.016 17 15.016ZM24.944 13.056C24.9398 12.4382 24.826 11.8261 24.608 11.248C24.4474 10.825 24.199 10.4409 23.8791 10.1209C23.5591 9.80102 23.175 9.55257 22.752 9.392C22.1739 9.17397 21.5618 9.06021 20.944 9.056C19.912 9 19.608 9 17 9C14.392 9 14.088 9 13.056 9.056C12.4382 9.06021 11.8261 9.17397 11.248 9.392C10.825 9.55257 10.4409 9.80102 10.1209 10.1209C9.80102 10.4409 9.55257 10.825 9.392 11.248C9.17397 11.8261 9.06021 12.4382 9.056 13.056C9 14.088 9 14.392 9 17C9 19.608 9 19.912 9.056 20.944C9.06461 21.564 9.17822 22.178 9.392 22.76C9.55186 23.1811 9.8001 23.563 10.12 23.88C10.4386 24.2018 10.8235 24.4503 11.248 24.608C11.8261 24.826 12.4382 24.9398 13.056 24.944C14.088 25 14.392 25 17 25C19.608 25 19.912 25 20.944 24.944C21.5618 24.9398 22.1739 24.826 22.752 24.608C23.1765 24.4503 23.5614 24.2018 23.88 23.88C24.1999 23.563 24.4481 23.1811 24.608 22.76C24.8258 22.1791 24.9396 21.5644 24.944 20.944C25 19.912 25 19.608 25 17C25 14.392 25 14.088 24.944 13.056ZM22.912 19.456C22.8863 19.9497 22.781 20.436 22.6 20.896C22.4447 21.2797 22.2138 21.6284 21.9211 21.9211C21.6284 22.2138 21.2797 22.4447 20.896 22.6C20.4316 22.7709 19.9426 22.8654 19.448 22.88C18.816 22.88 18.648 22.88 17 22.88C15.352 22.88 15.184 22.88 14.552 22.88C14.0574 22.8654 13.5684 22.7709 13.104 22.6C12.7073 22.4526 12.349 22.2174 12.056 21.912C11.7661 21.625 11.5423 21.2783 11.4 20.896C11.2284 20.4321 11.1365 19.9425 11.128 19.448C11.128 18.816 11.128 18.648 11.128 17C11.128 15.352 11.128 15.184 11.128 14.552C11.1365 14.0575 11.2284 13.5679 11.4 13.104C11.5474 12.7073 11.7826 12.349 12.088 12.056C12.3763 11.7677 12.7226 11.5441 13.104 11.4C13.5684 11.2291 14.0574 11.1346 14.552 11.12C15.184 11.12 15.352 11.12 17 11.12C18.648 11.12 18.816 11.12 19.448 11.12C19.9426 11.1346 20.4316 11.2291 20.896 11.4C21.2927 11.5474 21.651 11.7826 21.944 12.088C22.2339 12.375 22.4577 12.7217 22.6 13.104C22.7709 13.5684 22.8654 14.0574 22.88 14.552C22.88 15.184 22.88 15.352 22.88 17C22.88 18.648 22.936 18.816 22.912 19.448V19.456ZM21.632 13.504C21.5368 13.2456 21.3866 13.0109 21.1918 12.8162C20.9971 12.6214 20.7624 12.4713 20.504 12.376C20.1492 12.253 19.7755 12.1934 19.4 12.2C18.776 12.2 18.6 12.2 17 12.2C15.4 12.2 15.224 12.2 14.6 12.2C14.2226 12.2037 13.8489 12.2741 13.496 12.408C13.2415 12.4989 13.0094 12.643 12.8149 12.8306C12.6204 13.0182 12.468 13.245 12.368 13.496C12.2518 13.8523 12.1951 14.2253 12.2 14.6C12.2 15.224 12.2 15.4 12.2 17C12.2 18.6 12.2 18.776 12.2 19.4C12.2079 19.777 12.2782 20.15 12.408 20.504C12.5033 20.7624 12.6534 20.9971 12.8482 21.1918C13.0429 21.3866 13.2776 21.5368 13.536 21.632C13.8773 21.7575 14.2365 21.8277 14.6 21.84C15.224 21.84 15.4 21.84 17 21.84C18.6 21.84 18.776 21.84 19.4 21.84C19.7774 21.8363 20.1511 21.7659 20.504 21.632C20.7624 21.5368 20.9971 21.3866 21.1918 21.1918C21.3866 20.9971 21.5368 20.7624 21.632 20.504C21.7659 20.1511 21.8363 19.7774 21.84 19.4C21.84 18.776 21.84 18.6 21.84 17C21.84 15.4 21.84 15.224 21.84 14.6C21.8402 14.2222 21.7697 13.8478 21.632 13.496V13.504ZM17 20.056C16.5991 20.056 16.2021 19.9769 15.8317 19.8232C15.4614 19.6695 15.125 19.4443 14.8419 19.1604C14.5588 18.8766 14.3344 18.5396 14.1817 18.1689C14.029 17.7982 13.9509 17.4009 13.952 17C13.952 16.3952 14.1314 15.8041 14.4676 15.3013C14.8037 14.7986 15.2815 14.4069 15.8404 14.1759C16.3993 13.9448 17.0141 13.8848 17.6071 14.0033C18.2002 14.1219 18.7447 14.4137 19.1717 14.8419C19.5988 15.2701 19.8892 15.8154 20.0063 16.4087C20.1233 17.0021 20.0616 17.6168 19.8291 18.175C19.5965 18.7333 19.2036 19.21 18.7 19.5449C18.1964 19.8797 17.6048 20.0576 17 20.056ZM20.2 14.544C20.0232 14.5253 19.8595 14.4418 19.7405 14.3096C19.6216 14.1774 19.5558 14.0058 19.5558 13.828C19.5558 13.6502 19.6216 13.4786 19.7405 13.3464C19.8595 13.2142 20.0232 13.1307 20.2 13.112C20.3768 13.1307 20.5405 13.2142 20.6595 13.3464C20.7784 13.4786 20.8442 13.6502 20.8442 13.828C20.8442 14.0058 20.7784 14.1774 20.6595 14.3096C20.5405 14.4418 20.3768 14.5253 20.2 14.544Z" fill="#404040"/>
<path d="M16.9997 0C7.62616 0 0 7.62616 0 17C0 26.3741 7.62616 34 16.9997 34C26.3736 34 34 26.3741 34 17C33.9997 7.62616 26.3733 0 16.9997 0ZM16.9997 32.3233C8.55058 32.3233 1.67669 25.4494 1.67669 17C1.67669 8.55086 8.55058 1.67669 16.9997 1.67669C25.4489 1.67669 32.3233 8.55086 32.3233 17C32.323 25.4494 25.4489 32.3233 16.9997 32.3233Z" fill="#949494"/>
</svg>
