<svg width="34" height="34" viewBox="0 0 34 34" fill="none" xmlns="http://www.w3.org/2000/svg">
<path d="M16.9997 0C7.62616 0 0 7.62616 0 17C0 26.3741 7.62616 34 16.9997 34C26.3736 34 34 26.3741 34 17C33.9997 7.62616 26.3733 0 16.9997 0ZM16.9997 32.3233C8.55058 32.3233 1.67669 25.4494 1.67669 17C1.67669 8.55086 8.55058 1.67669 16.9997 1.67669C25.4489 1.67669 32.3233 8.55086 32.3233 17C32.323 25.4494 25.4489 32.3233 16.9997 32.3233Z" fill="#949494"/>
<g clip-path="url(#clip0_568_6360)">
<path d="M10 11.6263C10 11.1549 10.1577 10.766 10.473 10.4596C10.7883 10.1532 11.1982 10 11.7027 10C12.1982 10 12.5991 10.1508 12.9054 10.4525C13.2207 10.7636 13.3784 11.169 13.3784 11.6687C13.3784 12.1212 13.2252 12.4983 12.9189 12.8C12.6036 13.1111 12.1892 13.2667 11.6757 13.2667H11.6622C11.1667 13.2667 10.7658 13.1111 10.4595 12.8C10.1531 12.4889 10 12.0976 10 11.6263ZM10.1757 24V14.5535H13.1757V24H10.1757ZM14.8378 24H17.8378V18.7252C17.8378 18.3953 17.8739 18.1407 17.9459 17.9616C18.0721 17.6411 18.2635 17.37 18.5203 17.1485C18.777 16.9269 19.0991 16.8162 19.4865 16.8162C20.4955 16.8162 21 17.5279 21 18.9515V24H24V18.5838C24 17.1885 23.6847 16.1303 23.0541 15.4091C22.4234 14.6879 21.5901 14.3273 20.5541 14.3273C19.3919 14.3273 18.4865 14.8505 17.8378 15.897V15.9252H17.8243L17.8378 15.897V14.5535H14.8378C14.8559 14.8552 14.8649 15.7932 14.8649 17.3677C14.8649 18.9421 14.8559 21.1528 14.8378 24Z" fill="#404040"/>
</g>
<defs>
<clipPath id="clip0_568_6360">
<rect width="14" height="14" fill="white" transform="translate(10 10)"/>
</clipPath>
</defs>
</svg>
