<svg width="34" height="34" viewBox="0 0 34 34" fill="none" xmlns="http://www.w3.org/2000/svg">
<path d="M16.9997 0C7.62616 0 0 7.62616 0 17C0 26.3741 7.62616 34 16.9997 34C26.3736 34 34 26.3741 34 17C33.9997 7.62616 26.3733 0 16.9997 0ZM16.9997 32.3233C8.55058 32.3233 1.67669 25.4494 1.67669 17C1.67669 8.55086 8.55058 1.67669 16.9997 1.67669C25.4489 1.67669 32.3233 8.55086 32.3233 17C32.323 25.4494 25.4489 32.3233 16.9997 32.3233Z" fill="#949494"/>
<path d="M27 11.7971C26.3235 12.0975 25.6081 12.2961 24.876 12.3867C25.6484 11.9144 26.2271 11.1713 26.505 10.2954C25.7792 10.7377 24.9847 11.0493 24.156 11.2167C23.6021 10.6018 22.8645 10.1925 22.0588 10.0529C21.2532 9.9134 20.4251 10.0516 19.7044 10.4457C18.9837 10.8399 18.4112 11.4678 18.0767 12.2309C17.7422 12.994 17.6646 13.8492 17.856 14.6624C16.3885 14.5864 14.953 14.1952 13.6428 13.5143C12.3326 12.8334 11.177 11.8779 10.251 10.71C9.92622 11.2905 9.75557 11.948 9.756 12.6171C9.75485 13.2384 9.9038 13.8503 10.1896 14.3985C10.4754 14.9466 10.8891 15.4139 11.394 15.7587C10.8072 15.7424 10.2329 15.5812 9.72 15.2889V15.3349C9.7244 16.2055 10.0224 17.0477 10.5636 17.7192C11.1048 18.3907 11.8559 18.8503 12.69 19.0201C12.3689 19.1202 12.0356 19.1729 11.7 19.1768C11.4677 19.174 11.236 19.1524 11.007 19.1123C11.2445 19.8611 11.7042 20.5156 12.322 20.9845C12.9398 21.4535 13.685 21.7136 14.454 21.7288C13.1555 22.7747 11.5523 23.3455 9.9 23.3503C9.59916 23.3513 9.29856 23.3328 9 23.295C10.687 24.41 12.6529 25.0019 14.661 24.9994C16.0467 25.0142 17.4214 24.7461 18.7048 24.2109C19.9882 23.6756 21.1545 22.884 22.1357 21.8822C23.1168 20.8804 23.8932 19.6885 24.4193 18.3761C24.9454 17.0637 25.2108 15.6571 25.2 14.2386C25.2 14.0819 25.2 13.9161 25.2 13.7503C25.9062 13.2111 26.5153 12.5502 27 11.7971V11.7971Z" fill="#404040"/>
</svg>
