<svg width="76" height="25" viewBox="0 0 76 25" fill="none" xmlns="http://www.w3.org/2000/svg">
<path d="M32.8353 24.1631H26.6548L30.5175 0.42418H36.6986L32.8353 24.1631ZM21.4554 0.42418L15.5632 16.752L14.866 13.236L14.8666 13.2372L12.787 2.5616C12.787 2.5616 12.5356 0.42418 9.85522 0.42418H0.1143L0 0.826136C0 0.826136 2.97879 1.4459 6.46495 3.5395L11.8345 24.1637H18.2741L28.1071 0.42418H21.4554V0.42418ZM70.0679 24.1631H75.7429L70.795 0.423546H65.8268C63.5325 0.423546 62.9737 2.19266 62.9737 2.19266L53.756 24.1631H60.1987L61.4872 20.6369H69.344L70.0679 24.1631ZM63.2671 15.7658L66.5145 6.88214L68.3414 15.7658H63.2671ZM54.2393 6.13284L55.1213 1.03505C55.1213 1.03505 52.3997 0 49.5625 0C46.4954 0 39.212 1.34049 39.212 7.85878C39.212 13.9916 47.7603 14.0678 47.7603 17.2892C47.7603 20.5105 40.0927 19.9333 37.5622 17.902L36.6434 23.2322C36.6434 23.2322 39.4031 24.5726 43.6195 24.5726C47.8372 24.5726 54.1999 22.3889 54.1999 16.4453C54.1999 10.273 45.5747 9.69837 45.5747 7.01486C45.5753 4.33071 51.5945 4.67551 54.2393 6.13284V6.13284Z" fill="#2566AF"/>
<path d="M14.8666 13.2369L12.787 2.56124C12.787 2.56124 12.5356 0.423828 9.85522 0.423828H0.1143L0 0.825784C0 0.825784 4.68186 1.79606 9.17259 5.43145C13.4665 8.90617 14.8666 13.2369 14.8666 13.2369Z" fill="#E6A540"/>
</svg>
